# Blender 4.2.0
# www.blender.org
mtllib model.mtl
o Cube
v 1.000000 1.000000 -1.000000
v 1.000000 -1.000000 -1.000000
v 1.000000 1.000000 1.000000
v 1.000000 -1.000000 1.000000
v -1.000000 1.000000 -1.000000
v -1.000000 -1.000000 -1.000000
v -1.000000 1.000000 1.000000
v -1.000000 -1.000000 1.000000
v -0.000000 1.956751 -0.610288
v -0.119061 1.956751 -0.598561
v -0.233547 1.956751 -0.563832
v -0.339058 1.956751 -0.507436
v -0.431539 1.956751 -0.431539
v -0.507436 1.956751 -0.339058
v -0.563832 1.956751 -0.233547
v -0.598561 1.956751 -0.119061
v -0.610288 1.956751 -0.000000
v -0.598561 1.956751 0.119061
v -0.563832 1.956751 0.233547
v -0.507436 1.956751 0.339058
v -0.431539 1.956751 0.431539
v -0.339058 1.956751 0.507436
v -0.233547 1.956751 0.563832
v -0.119061 1.956751 0.598561
v -0.000000 1.956751 0.610288
v 0.119061 1.956751 0.598561
v 0.233547 1.956751 0.563832
v 0.339058 1.956751 0.507436
v 0.431539 1.956751 0.431539
v 0.507436 1.956751 0.339058
v 0.563832 1.956751 0.233547
v 0.598561 1.956751 0.119061
v 0.610288 1.956751 -0.000000
v 0.598561 1.956751 -0.119061
v 0.563832 1.956751 -0.233547
v 0.507436 1.956751 -0.339058
v 0.431539 1.956751 -0.431539
v 0.339058 1.956751 -0.507436
v 0.233547 1.956751 -0.563832
v 0.119061 1.956751 -0.598561
v -0.000000 1.000000 -0.610288
v -0.119061 1.000000 -0.598561
v -0.233547 1.000000 -0.563832
v -0.339058 1.000000 -0.507436
v -0.431539 1.000000 -0.431539
v -0.507436 1.000000 -0.339058
v -0.563832 1.000000 -0.233547
v -0.598561 1.000000 -0.119061
v -0.610288 1.000000 -0.000000
v -0.598561 1.000000 0.119061
v -0.563832 1.000000 0.233547
v -0.507436 1.000000 0.339058
v -0.431539 1.000000 0.431539
v -0.339058 1.000000 0.507436
v -0.233547 1.000000 0.563832
v -0.119061 1.000000 0.598561
v -0.000000 1.000000 0.610288
v 0.119061 1.000000 0.598561
v 0.233547 1.000000 0.563832
v 0.339058 1.000000 0.507436
v 0.431539 1.000000 0.431539
v 0.507436 1.000000 0.339058
v 0.563832 1.000000 0.233547
v 0.598561 1.000000 0.119061
v 0.610288 1.000000 -0.000000
v 0.598561 1.000000 -0.119061
v 0.563832 1.000000 -0.233547
v 0.507436 1.000000 -0.339058
v 0.431539 1.000000 -0.431539
v 0.339058 1.000000 -0.507436
v 0.233547 1.000000 -0.563832
v 0.119061 1.000000 -0.598561
v -0.000000 1.956751 -0.267954
v -0.052275 1.956751 -0.262806
v -0.102542 1.956751 -0.247558
v -0.148868 1.956751 -0.222796
v -0.189472 1.956751 -0.189472
v -0.222796 1.956751 -0.148868
v -0.247558 1.956751 -0.102542
v -0.262806 1.956751 -0.052275
v -0.267954 1.956751 -0.000000
v -0.262806 1.956751 0.052275
v -0.247558 1.956751 0.102542
v -0.222796 1.956751 0.148868
v -0.189472 1.956751 0.189472
v -0.148868 1.956751 0.222796
v -0.102542 1.956751 0.247558
v -0.052275 1.956751 0.262806
v -0.000000 1.956751 0.267954
v 0.052275 1.956751 0.262806
v 0.102542 1.956751 0.247558
v 0.148868 1.956751 0.222796
v 0.189472 1.956751 0.189472
v 0.222796 1.956751 0.148868
v 0.247558 1.956751 0.102542
v 0.262806 1.956751 0.052275
v 0.267954 1.956751 -0.000000
v 0.262806 1.956751 -0.052275
v 0.247558 1.956751 -0.102542
v 0.222796 1.956751 -0.148868
v 0.189472 1.956751 -0.189472
v 0.148868 1.956751 -0.222796
v 0.102542 1.956751 -0.247558
v 0.052275 1.956751 -0.262806
vn -0.0000 1.0000 -0.0000
vn -0.0000 -0.0000 1.0000
vn -1.0000 -0.0000 -0.0000
vn -0.0000 -1.0000 -0.0000
vn 1.0000 -0.0000 -0.0000
vn -0.0000 -0.0000 -1.0000
vn -0.9808 -0.0000 -0.1951
vn 0.8315 -0.0000 0.5556
vn 0.9239 -0.0000 0.3827
vn -0.9808 -0.0000 0.1951
vn 0.9808 -0.0000 0.1951
vn -0.9239 -0.0000 0.3827
vn -0.8315 -0.0000 0.5556
vn 0.9808 -0.0000 -0.1951
vn -0.7071 -0.0000 0.7071
vn 0.9239 -0.0000 -0.3827
vn -0.5556 -0.0000 0.8315
vn 0.8315 -0.0000 -0.5556
vn -0.3827 -0.0000 0.9239
vn -0.1951 -0.0000 -0.9808
vn 0.7071 -0.0000 -0.7071
vn -0.1951 -0.0000 0.9808
vn -0.3827 -0.0000 -0.9239
vn 0.5556 -0.0000 -0.8315
vn -0.5556 -0.0000 -0.8315
vn 0.3827 -0.0000 -0.9239
vn 0.1951 -0.0000 0.9808
vn -0.7071 -0.0000 -0.7071
vn 0.1951 -0.0000 -0.9808
vn 0.3827 -0.0000 0.9239
vn -0.8315 -0.0000 -0.5556
vn 0.5556 -0.0000 0.8315
vn -0.9239 -0.0000 -0.3827
vn 0.7071 -0.0000 0.7071
vt 0.625000 0.500000
vt 0.875000 0.500000
vt 0.875000 0.750000
vt 0.625000 0.750000
vt 0.375000 0.750000
vt 0.625000 1.000000
vt 0.375000 1.000000
vt 0.375000 0.000000
vt 0.625000 0.000000
vt 0.625000 0.250000
vt 0.375000 0.250000
vt 0.125000 0.500000
vt 0.375000 0.500000
vt 0.125000 0.750000
vt 0.000000 0.000000
s 1
usemtl Material
f 4/5/2 3/4/2 7/6/2 8/7/2
f 8/8/3 7/9/3 5/10/3 6/11/3
f 6/12/4 2/13/4 4/5/4 8/14/4
f 2/13/5 1/1/5 3/4/5 4/5/5
f 6/11/6 5/10/6 1/1/6 2/13/6
f 16/15/7 48/15/7 49/15/3 17/15/3
f 30/15/8 62/15/8 63/15/9 31/15/9
f 17/15/3 49/15/3 50/15/10 18/15/10
f 31/15/9 63/15/9 64/15/11 32/15/11
f 18/15/10 50/15/10 51/15/12 19/15/12
f 32/15/11 64/15/11 65/15/5 33/15/5
f 19/15/12 51/15/12 52/15/13 20/15/13
f 33/15/5 65/15/5 66/15/14 34/15/14
f 20/15/13 52/15/13 53/15/15 21/15/15
f 34/15/14 66/15/14 67/15/16 35/15/16
f 21/15/15 53/15/15 54/15/17 22/15/17
f 35/15/16 67/15/16 68/15/18 36/15/18
f 22/15/17 54/15/17 55/15/19 23/15/19
f 9/15/6 41/15/6 42/15/20 10/15/20
f 36/15/18 68/15/18 69/15/21 37/15/21
f 23/15/19 55/15/19 56/15/22 24/15/22
f 10/15/20 42/15/20 43/15/23 11/15/23
f 37/15/21 69/15/21 70/15/24 38/15/24
f 24/15/22 56/15/22 57/15/2 25/15/2
f 11/15/23 43/15/23 44/15/25 12/15/25
f 38/15/24 70/15/24 71/15/26 39/15/26
f 25/15/2 57/15/2 58/15/27 26/15/27
f 12/15/25 44/15/25 45/15/28 13/15/28
f 39/15/26 71/15/26 72/15/29 40/15/29
f 26/15/27 58/15/27 59/15/30 27/15/30
f 13/15/28 45/15/28 46/15/31 14/15/31
f 40/15/29 72/15/29 41/15/6 9/15/6
f 27/15/30 59/15/30 60/15/32 28/15/32
f 14/15/31 46/15/31 47/15/33 15/15/33
f 28/15/32 60/15/32 61/15/34 29/15/34
f 15/15/33 47/15/33 48/15/7 16/15/7
f 29/15/34 61/15/34 62/15/8 30/15/8
f 29/15/1 93/15/1 92/15/1 28/15/1
f 16/15/1 80/15/1 79/15/1 15/15/1
f 30/15/1 94/15/1 93/15/1 29/15/1
f 17/15/1 81/15/1 80/15/1 16/15/1
f 31/15/1 95/15/1 94/15/1 30/15/1
f 18/15/1 82/15/1 81/15/1 17/15/1
f 32/15/1 96/15/1 95/15/1 31/15/1
f 19/15/1 83/15/1 82/15/1 18/15/1
f 33/15/1 97/15/1 96/15/1 32/15/1
f 20/15/1 84/15/1 83/15/1 19/15/1
f 34/15/1 98/15/1 97/15/1 33/15/1
f 21/15/1 85/15/1 84/15/1 20/15/1
f 35/15/1 99/15/1 98/15/1 34/15/1
f 22/15/1 86/15/1 85/15/1 21/15/1
f 36/15/1 100/15/1 99/15/1 35/15/1
f 23/15/1 87/15/1 86/15/1 22/15/1
f 10/15/1 74/15/1 73/15/1 9/15/1
f 37/15/1 101/15/1 100/15/1 36/15/1
f 24/15/1 88/15/1 87/15/1 23/15/1
f 11/15/1 75/15/1 74/15/1 10/15/1
f 38/15/1 102/15/1 101/15/1 37/15/1
f 25/15/1 89/15/1 88/15/1 24/15/1
f 12/15/1 76/15/1 75/15/1 11/15/1
f 39/15/1 103/15/1 102/15/1 38/15/1
f 26/15/1 90/15/1 89/15/1 25/15/1
f 13/15/1 77/15/1 76/15/1 12/15/1
f 40/15/1 104/15/1 103/15/1 39/15/1
f 27/15/1 91/15/1 90/15/1 26/15/1
f 14/15/1 78/15/1 77/15/1 13/15/1
f 9/15/1 73/15/1 104/15/1 40/15/1
f 28/15/1 92/15/1 91/15/1 27/15/1
f 15/15/1 79/15/1 78/15/1 14/15/1
usemtl Material.001
f 74/15/1 75/15/1 76/15/1 77/15/1 78/15/1 79/15/1 80/15/1 81/15/1 82/15/1 83/15/1 84/15/1 85/15/1 86/15/1 87/15/1 88/15/1 89/15/1 90/15/1 91/15/1 92/15/1 93/15/1 94/15/1 95/15/1 96/15/1 97/15/1 98/15/1 99/15/1 100/15/1 101/15/1 102/15/1 103/15/1 104/15/1 73/15/1
usemtl Material.002
f 1/1/1 5/2/1 7/3/1 3/4/1
